<svg xmlns="http://www.w3.org/2000/svg" version="1.1" xmlns:xlink="http://www.w3.org/1999/xlink" xmlns:svgjs="http://svgjs.dev/svgjs" width="1500" height="1500" viewBox="0 0 1500 1500"><rect width="1500" height="1500" fill="#122023"></rect><g transform="matrix(0.6666666666666666,0,0,0.6666666666666666,249.39393939393938,526.0662319113385)"><svg viewBox="0 0 396 177" data-background-color="#122023" preserveAspectRatio="xMidYMid meet" height="670" width="1500" xmlns="http://www.w3.org/2000/svg" xmlns:xlink="http://www.w3.org/1999/xlink"><g id="tight-bounds" transform="matrix(1,0,0,1,0.2400000000000091,0.23793347393977626)"><svg viewBox="0 0 395.52 176.52413305212045" height="176.52413305212045" width="395.52"><g><svg viewBox="0 0 395.52 176.52413305212045" height="176.52413305212045" width="395.52"><g transform="matrix(1,0,0,1,0,106.52578896965261)"><svg viewBox="0 0 395.52 69.99834408246784" height="69.99834408246784" width="395.52"><g id="textblocktransform"><svg viewBox="0 0 395.52 69.99834408246784" height="69.99834408246784" width="395.52" id="textblock"><g><svg viewBox="0 0 395.52 41.46155241397706" height="41.46155241397706" width="395.52"><g transform="matrix(1,0,0,1,0,0)"><svg width="395.52" viewBox="2.1 -37.8 374.85999999999996 39.3" height="41.46155241397706" data-palette-color="#efefef"><path d="M19.8-16.9L18.9-23.15 12.6-23.65 8.1-18.85 6.8-13.65 7.45-8.35 10.65-2.55 16.8-1.55 21.5-4.05 22.4-2.75 18.45 0.4 13.75 1 6.6-1.05 2.15-8.3 2.1-16.65 5.5-22.6 10.75-25.35 15.3-26 22.95-25 21.45-17.15 19.8-16.9ZM27.8-4.55L26.15-9.5 26.15-16.05 29.1-22 34.75-25.75 41.6-26 47.85-22.25 51.1-16.25 50.5-7.1 46.8-1.2 39.05 1 32.55-0.25 27.8-4.55ZM34.8-23.2L31.65-17.75 31.4-12.15 32-6.35 34.15-2.6 39.45-1.3 44.35-3.45 45.8-11.25 45.3-17.75 43.45-21.9 39.8-23.75 34.8-23.2ZM66.45 1.5L58.3-18.2 56.05-22.6 52.7-23.5 52.95-25.25 59.05-25 65.5-25.25 65.4-23.5 62.25-22.5 63.05-19.6 66.3-11.25 68.3-3.95 68.45-3.95 69.8-9.05 73.75-19.45 74.55-22.65 71-23.5 71.25-25.25 75.8-25 81.09-25.25 81-23.5 77.9-22.5 75.75-17.9 69.59-1.45 68.09 1.15 66.45 1.5ZM96.84-12.9L88.19-13.45 88.14-13 89.49-5.95 93.44-2.05 98.04-1.55 102.74-4.05 103.64-2.75 99.69 0.4 94.99 1 90.09-0.15 85.84-3.7 83.29-11.2 84.14-17.9 86.74-22.6 91.99-25.5 96.39-26.05 99.89-24.95 102.59-22.5 104.14-18.05 104.19-13.9 103.49-13.35 96.84-12.9ZM94.49-23.8L90.69-21.55 88.74-17.75 88.44-15.5 96.04-15.4 99.49-16.15 99.19-20.8 97.69-23.35 94.49-23.8ZM116.29-24.95L116.09-20.9 116.29-20.9 119.39-24.45 122.79-25.95 126.54-25 125.69-17.55 123.94-17.9 122.69-23.05 119.44-22 115.89-17.85 115.64-13.15 115.79-8.3 115.99-2.5 120.99-1.5 120.74 0.25 113.49 0 107.39 0.25 107.49-1.5 110.79-2.5 111.04-7.75 110.94-17.35 110.69-22.55 107.14-22.4 106.89-24.15 113.79-25.5 116.29-24.95ZM146.39 0L140.29 0.25 140.39-1.5 143.69-2.5 143.94-7.75 144.14-18.7 143.84-29.85 143.59-34.85 140.04-34.7 139.79-36.45 146.69-37.8 149.19-37.25 148.84-30.65 148.54-13.15 148.69-8.3 149.09-2.5 152.74-1.5 152.49 0.25 146.39 0ZM168.93-12.9L160.28-13.45 160.23-13 161.58-5.95 165.53-2.05 170.13-1.55 174.83-4.05 175.73-2.75 171.78 0.4 167.08 1 162.18-0.15 157.93-3.7 155.38-11.2 156.23-17.9 158.83-22.6 164.08-25.5 168.48-26.05 171.98-24.95 174.68-22.5 176.23-18.05 176.28-13.9 175.58-13.35 168.93-12.9ZM166.58-23.8L162.78-21.55 160.83-17.75 160.53-15.5 168.13-15.4 171.58-16.15 171.28-20.8 169.78-23.35 166.58-23.8ZM193.93-1.2L191.13 0.5 187.73 1 184.18-0.2 182.58-4.2 182.83-13.5 182.58-21.9 179.13-22.4 178.83-24.15 182.78-25.2 184.58-30.25 187.13-30.25 186.98-24.65 193.03-24.45 192.73-22.25 187.48-21.9 187.28-19.6 187.48-4.45 188.48-1.45 193.18-2.7 193.93-1.2ZM210.08-1.2L207.28 0.5 203.88 1 200.33-0.2 198.73-4.2 198.98-13.5 198.73-21.9 195.28-22.4 194.98-24.15 198.93-25.2 200.73-30.25 203.28-30.25 203.13-24.65 209.18-24.45 208.88-22.25 203.63-21.9 203.43-19.6 203.63-4.45 204.63-1.45 209.33-2.7 210.08-1.2ZM225.98-12.9L217.33-13.45 217.28-13 218.63-5.95 222.58-2.05 227.18-1.55 231.88-4.05 232.78-2.75 228.83 0.4 224.13 1 219.23-0.15 214.98-3.7 212.43-11.2 213.28-17.9 215.88-22.6 221.13-25.5 225.53-26.05 229.03-24.95 231.73-22.5 233.28-18.05 233.33-13.9 232.63-13.35 225.98-12.9ZM223.63-23.8L219.83-21.55 217.88-17.75 217.58-15.5 225.18-15.4 228.63-16.15 228.33-20.8 226.83-23.35 223.63-23.8ZM245.42-24.95L245.22-20.9 245.42-20.9 248.52-24.45 251.92-25.95 255.67-25 254.82-17.55 253.07-17.9 251.82-23.05 248.57-22 245.02-17.85 244.77-13.15 244.92-8.3 245.12-2.5 250.12-1.5 249.87 0.25 242.62 0 236.52 0.25 236.62-1.5 239.92-2.5 240.17-7.75 240.07-17.35 239.82-22.55 236.27-22.4 236.02-24.15 242.92-25.5 245.42-24.95ZM293.87-8.3L294.27-2.45 297.82-1.5 297.57 0.25 291.67 0 285.57 0.25 285.67-1.5 288.97-2.5 289.32-7.75 289.12-18.65 287.77-21.95 283.52-22.7 278.57-20.05 278.47-18.15 278.17-13.15 278.27-8.3 278.52-2.5 282.17-1.5 281.92 0.25 276.02 0 269.92 0.25 270.02-1.5 273.32-2.5 273.67-7.75 273.47-17.35 273.22-22.55 269.67-22.4 269.42-24.15 276.32-25.5 278.82-24.95 278.67-22.6 283.52-25.65 288.62-26 293.22-22.85 293.47-21.5 298.47-25.65 303.57-26 308.17-22.85 308.92-18.85 308.82-8.3 309.22-2.45 312.77-1.5 312.52 0.25 306.62 0 300.52 0.25 300.62-1.5 303.92-2.5 304.27-7.75 304.07-18.65 302.72-21.95 298.47-22.7 293.87-19.35 293.97-18.85 293.87-8.3ZM333.47-19.8L333.52-9.1 333.87-2.05 337.32-1.55 336.97 0.1 330.02 0.7 329.37-2.25 329.12-2.25 324.17 0.7 318.97 0.7 315.47-1.85 314.42-6.75 316.62-10.65 322.62-13.25 329.22-13.5 329.02-19.75 328.07-22.85 324.02-24 319.17-22.85 319.02-17.55 317.07-17.15 315.77-24 321.52-25.7 327.97-26 331.87-24.1 333.47-19.8ZM319.27-6.85L320.62-2.8 324.37-1.85 329.42-4.75 329.22-11.5 324.87-11.5 321.02-9.95 319.27-6.85ZM353.71-1.2L350.91 0.5 347.51 1 343.96-0.2 342.36-4.2 342.61-13.5 342.36-21.9 338.91-22.4 338.61-24.15 342.56-25.2 344.36-30.25 346.91-30.25 346.76-24.65 352.81-24.45 352.51-22.25 347.26-21.9 347.06-19.6 347.26-4.45 348.26-1.45 352.96-2.7 353.71-1.2ZM369.61-12.9L360.96-13.45 360.91-13 362.26-5.95 366.21-2.05 370.81-1.55 375.51-4.05 376.41-2.75 372.46 0.4 367.76 1 362.86-0.15 358.61-3.7 356.06-11.2 356.91-17.9 359.51-22.6 364.76-25.5 369.16-26.05 372.66-24.95 375.36-22.5 376.91-18.05 376.96-13.9 376.26-13.35 369.61-12.9ZM367.26-23.8L363.46-21.55 361.51-17.75 361.21-15.5 368.81-15.4 372.26-16.15 371.96-20.8 370.46-23.35 367.26-23.8Z" opacity="1" transform="matrix(1,0,0,1,0,0)" fill="#efefef" class="wordmark-text-0" data-fill-palette-color="primary" id="text-0"></path></svg></g></svg></g><g transform="matrix(1,0,0,1,0,51.24962986165911)"><svg viewBox="0 0 395.52 18.748714220808722" height="18.748714220808722" width="395.52"><g transform="matrix(1,0,0,1,0,0)"><svg width="395.52" viewBox="-0.85 -38.8 990.34 46.949999999999996" height="18.748714220808722" data-palette-color="#efefef"><path d="M6.15 0L-0.85 0 13.9-35.45 14.4-35.45 29.2 0 22.4 0 20.45-5.05 8-5.05 6.15 0ZM14.1-22.2L13.3-19.4 9.8-9.9 18.6-9.9 14.95-19.4 14.1-22.2ZM38.8 0L32.4 0 32.4-34.85 38.8-34.85 38.8 0ZM62.2-12.3L46.24-12.3 46.24-17.2 62.2-17.2 62.2-12.3ZM76.24 0L69.79 0 69.79-34.85 79.14-34.85Q82.69-34.85 85.59-33.77 88.49-32.7 90.22-30.04 91.94-27.38 91.94-22.65L91.94-22.65Q91.94-19.23 90.64-16.19 89.34-13.15 86.56-11.25 83.77-9.35 79.34-9.35L79.34-9.35 76.24-9.35 76.24 0ZM78.74-29.8L78.74-29.8 76.24-29.8 76.24-14.6 78.89-14.6Q82.19-14.6 83.84-16.57 85.49-18.55 85.49-22.3L85.49-22.3Q85.49-26.13 83.99-27.96 82.49-29.8 78.74-29.8ZM106.54 0.5L106.54 0.5Q101.04 0.5 98.04-2.95 95.04-6.4 95.04-12.5L95.04-12.5Q95.04-18.65 98.14-22.08 101.24-25.5 106.74-25.5L106.74-25.5Q112.27-25.5 115.15-21.96 118.04-18.43 118.04-12.5L118.04-12.5Q118.04-6.58 115.05-3.04 112.06 0.5 106.54 0.5ZM106.64-4.5L106.64-4.5Q111.39-4.5 111.39-12.5L111.39-12.5Q111.39-20.55 106.64-20.55L106.64-20.55Q104.29-20.55 102.99-18.69 101.69-16.82 101.69-12.5L101.69-12.5Q101.69-8.2 102.99-6.35 104.29-4.5 106.64-4.5ZM133.39 0L128.39 0 120.44-24.9 126.79-24.9 129.79-13.05 131.09-7.8 132.19-13.05 135.44-24.9 140.64-24.9 144.09-13.05 145.39-7.8 146.54-13.05 149.44-24.9 155.59-24.9 147.74 0 142.69 0 138.69-13.55 137.89-17.6 137.09-13.55 133.39 0ZM169.69 0.65L169.69 0.65Q165.48 0.65 162.91-1.11 160.33-2.88 159.16-5.79 157.98-8.7 157.98-12.15L157.98-12.15Q157.98-15.78 159.32-18.81 160.66-21.85 163.25-23.68 165.83-25.5 169.58-25.5L169.58-25.5Q175.19-25.5 177.41-22.26 179.63-19.03 179.63-13.1L179.63-13.1Q179.63-12.58 179.61-11.78 179.58-10.98 179.53-10.4L179.53-10.4 164.53-10.4Q164.69-7.45 166.2-5.78 167.71-4.1 170.73-4.1L170.73-4.1Q172.28-4.1 174.06-4.79 175.83-5.48 176.69-6.45L176.69-6.45 178.69-1.7Q177.69-1.03 175.52-0.19 173.36 0.65 169.69 0.65ZM164.48-14.3L164.48-14.3 173.28-14.3Q173.28-16.93 172.82-18.31 172.36-19.7 171.56-20.23 170.76-20.75 169.73-20.75L169.73-20.75Q167.19-20.75 165.91-18.86 164.63-16.98 164.48-14.3ZM191.53 0L185.28 0 185.28-24.9 190.93-24.9 191.23-20.5Q191.63-21.48 192.47-22.58 193.31-23.68 194.79-24.44 196.28-25.2 198.63-25.2L198.63-25.2Q199.36-25.2 199.91-25.1 200.46-25 200.93-24.8L200.93-24.8 199.53-18.25Q198.73-19.05 197.08-19.05L197.08-19.05Q195.16-19.05 193.93-18.26 192.71-17.48 192.12-16.5 191.53-15.53 191.53-15L191.53-15 191.53 0ZM214.23 0.65L214.23 0.65Q210.03 0.65 207.45-1.11 204.88-2.88 203.7-5.79 202.53-8.7 202.53-12.15L202.53-12.15Q202.53-15.78 203.87-18.81 205.2-21.85 207.79-23.68 210.38-25.5 214.13-25.5L214.13-25.5Q219.73-25.5 221.95-22.26 224.18-19.03 224.18-13.1L224.18-13.1Q224.18-12.58 224.15-11.78 224.13-10.98 224.08-10.4L224.08-10.4 209.08-10.4Q209.23-7.45 210.74-5.78 212.25-4.1 215.28-4.1L215.28-4.1Q216.83-4.1 218.6-4.79 220.38-5.48 221.23-6.45L221.23-6.45 223.23-1.7Q222.23-1.03 220.07-0.19 217.9 0.65 214.23 0.65ZM209.03-14.3L209.03-14.3 217.83-14.3Q217.83-16.93 217.37-18.31 216.9-19.7 216.1-20.23 215.3-20.75 214.28-20.75L214.28-20.75Q211.73-20.75 210.45-18.86 209.18-16.98 209.03-14.3ZM238.43 0.7L238.43 0.7Q235.4 0.7 233.18-0.93 230.95-2.55 229.74-5.5 228.53-8.45 228.53-12.4L228.53-12.4Q228.53-18.55 231.04-22.03 233.55-25.5 238.53-25.5L238.53-25.5Q241.08-25.5 242.84-24.24 244.6-22.98 245.13-20.6L245.13-20.6 244.68-24.25 244.68-38 250.58-38 250.58 0 245.13 0 245.13-5.1Q244.45-2.53 242.75-0.91 241.05 0.7 238.43 0.7ZM239.88-4.25L239.88-4.25Q241.68-4.25 243.1-6.14 244.53-8.03 244.53-12.3L244.53-12.3Q244.53-16.2 243.43-18.32 242.33-20.45 240.03-20.45L240.03-20.45Q238.85-20.45 237.69-19.73 236.53-19 235.75-17.24 234.98-15.48 234.98-12.4L234.98-12.4Q234.98-8.28 236.4-6.26 237.83-4.25 239.88-4.25ZM279.97 0.6L279.97 0.6Q277.25 0.6 274.72-0.51 272.2-1.63 270.19-3.89 268.17-6.15 267-9.65 265.82-13.15 265.82-17.9L265.82-17.9Q265.82-23.6 267.81-27.51 269.8-31.43 273.14-33.44 276.47-35.45 280.52-35.45L280.52-35.45Q283.27-35.45 285.01-34.93 286.75-34.4 287.79-33.68 288.82-32.95 289.47-32.35L289.47-32.35 286.67-27.1Q285.6-28.28 284.45-28.99 283.3-29.7 280.77-29.7L280.77-29.7Q278.22-29.7 276.44-28.23 274.65-26.75 273.71-24.16 272.77-21.58 272.77-18.25L272.77-18.25Q272.77-11.73 274.96-8.41 277.15-5.1 280.22-5.1L280.22-5.1Q282.6-5.1 284.27-5.78 285.95-6.45 286.77-7.3L286.77-7.3 289.52-2.35Q288.82-1.78 287.66-1.09 286.5-0.4 284.64 0.1 282.77 0.6 279.97 0.6ZM303.92 0.5L303.92 0.5Q298.42 0.5 295.42-2.95 292.42-6.4 292.42-12.5L292.42-12.5Q292.42-18.65 295.52-22.08 298.62-25.5 304.12-25.5L304.12-25.5Q309.65-25.5 312.53-21.96 315.42-18.43 315.42-12.5L315.42-12.5Q315.42-6.58 312.43-3.04 309.45 0.5 303.92 0.5ZM304.02-4.5L304.02-4.5Q308.77-4.5 308.77-12.5L308.77-12.5Q308.77-20.55 304.02-20.55L304.02-20.55Q301.67-20.55 300.37-18.69 299.07-16.82 299.07-12.5L299.07-12.5Q299.07-8.2 300.37-6.35 301.67-4.5 304.02-4.5ZM331.77 0L327.32 0 317.22-24.9 324.22-24.9 328.52-12.45 329.62-8.35 330.62-12.45 334.77-24.9 341.37-24.9 331.77 0ZM354.87 0.65L354.87 0.65Q350.67 0.65 348.09-1.11 345.52-2.88 344.34-5.79 343.17-8.7 343.17-12.15L343.17-12.15Q343.17-15.78 344.5-18.81 345.84-21.85 348.43-23.68 351.02-25.5 354.77-25.5L354.77-25.5Q360.37-25.5 362.59-22.26 364.82-19.03 364.82-13.1L364.82-13.1Q364.82-12.58 364.79-11.78 364.77-10.98 364.72-10.4L364.72-10.4 349.72-10.4Q349.87-7.45 351.38-5.78 352.89-4.1 355.92-4.1L355.92-4.1Q357.47-4.1 359.24-4.79 361.02-5.48 361.87-6.45L361.87-6.45 363.87-1.7Q362.87-1.03 360.7-0.19 358.54 0.65 354.87 0.65ZM349.67-14.3L349.67-14.3 358.47-14.3Q358.47-16.93 358-18.31 357.54-19.7 356.74-20.23 355.94-20.75 354.92-20.75L354.92-20.75Q352.37-20.75 351.09-18.86 349.82-16.98 349.67-14.3ZM376.71 0L370.46 0 370.46-24.9 376.11-24.9 376.41-20.5Q376.81-21.48 377.65-22.58 378.49-23.68 379.98-24.44 381.46-25.2 383.81-25.2L383.81-25.2Q384.54-25.2 385.09-25.1 385.64-25 386.11-24.8L386.11-24.8 384.71-18.25Q383.91-19.05 382.26-19.05L382.26-19.05Q380.34-19.05 379.11-18.26 377.89-17.48 377.3-16.5 376.71-15.53 376.71-15L376.71-15 376.71 0ZM416.56 0L399.81 0 399.81-34.85 406.16-34.85 406.16-5.5 416.56-5.5 416.56 0ZM431.66 0.65L431.66 0.65Q427.46 0.65 424.88-1.11 422.31-2.88 421.13-5.79 419.96-8.7 419.96-12.15L419.96-12.15Q419.96-15.78 421.29-18.81 422.63-21.85 425.22-23.68 427.81-25.5 431.56-25.5L431.56-25.5Q437.16-25.5 439.38-22.26 441.61-19.03 441.61-13.1L441.61-13.1Q441.61-12.58 441.58-11.78 441.56-10.98 441.51-10.4L441.51-10.4 426.51-10.4Q426.66-7.45 428.17-5.78 429.68-4.1 432.71-4.1L432.71-4.1Q434.26-4.1 436.03-4.79 437.81-5.48 438.66-6.45L438.66-6.45 440.66-1.7Q439.66-1.03 437.49-0.19 435.33 0.65 431.66 0.65ZM426.46-14.3L426.46-14.3 435.26-14.3Q435.26-16.93 434.79-18.31 434.33-19.7 433.53-20.23 432.73-20.75 431.71-20.75L431.71-20.75Q429.16-20.75 427.88-18.86 426.61-16.98 426.46-14.3ZM455.7 0.75L455.7 0.75Q451.48 0.75 449.99-1.45 448.5-3.65 448.5-8.1L448.5-8.1 448.5-19.65 445.25-19.65 445.25-24.9 448.75-24.9 449.1-30.15 454.55-32.5 454.55-24.9 460.7-24.9 460.7-19.65 454.55-19.65 454.55-8.25Q454.55-6.08 455.17-5.24 455.78-4.4 456.85-4.4L456.85-4.4Q457.95-4.4 459.18-4.98 460.4-5.55 461.1-6.15L461.1-6.15 462.3-1.1Q461.53-0.55 460.29-0.14 459.05 0.28 457.79 0.51 456.53 0.75 455.7 0.75ZM475.15 0.75L475.15 0.75Q470.93 0.75 469.44-1.45 467.95-3.65 467.95-8.1L467.95-8.1 467.95-19.65 464.7-19.65 464.7-24.9 468.2-24.9 468.55-30.15 474-32.5 474-24.9 480.15-24.9 480.15-19.65 474-19.65 474-8.25Q474-6.08 474.61-5.24 475.23-4.4 476.3-4.4L476.3-4.4Q477.4-4.4 478.63-4.98 479.85-5.55 480.55-6.15L480.55-6.15 481.75-1.1Q480.98-0.55 479.74-0.14 478.5 0.28 477.24 0.51 475.98 0.75 475.15 0.75ZM496 0.65L496 0.65Q491.8 0.65 489.22-1.11 486.65-2.88 485.47-5.79 484.3-8.7 484.3-12.15L484.3-12.15Q484.3-15.78 485.64-18.81 486.97-21.85 489.56-23.68 492.15-25.5 495.9-25.5L495.9-25.5Q501.5-25.5 503.72-22.26 505.95-19.03 505.95-13.1L505.95-13.1Q505.95-12.58 505.92-11.78 505.9-10.98 505.85-10.4L505.85-10.4 490.85-10.4Q491-7.45 492.51-5.78 494.02-4.1 497.05-4.1L497.05-4.1Q498.6-4.1 500.37-4.79 502.15-5.48 503-6.45L503-6.45 505-1.7Q504-1.03 501.84-0.19 499.67 0.65 496 0.65ZM490.8-14.3L490.8-14.3 499.6-14.3Q499.6-16.93 499.14-18.31 498.67-19.7 497.87-20.23 497.07-20.75 496.05-20.75L496.05-20.75Q493.5-20.75 492.22-18.86 490.95-16.98 490.8-14.3ZM517.85 0L511.6 0 511.6-24.9 517.25-24.9 517.55-20.5Q517.95-21.48 518.78-22.58 519.62-23.68 521.11-24.44 522.6-25.2 524.95-25.2L524.95-25.2Q525.67-25.2 526.22-25.1 526.77-25 527.25-24.8L527.25-24.8 525.85-18.25Q525.05-19.05 523.39-19.05L523.39-19.05Q521.47-19.05 520.25-18.26 519.02-17.48 518.43-16.5 517.85-15.53 517.85-15L517.85-15 517.85 0ZM537.74 0.45L537.74 0.45Q535.02 0.45 533.28-0.06 531.54-0.58 530.58-1.24 529.62-1.9 529.24-2.35L529.24-2.35 531.09-7.1Q532.19-6.2 533.9-5.33 535.62-4.45 537.89-4.45L537.89-4.45Q539.67-4.45 540.38-5.18 541.09-5.9 541.09-6.75L541.09-6.75Q541.09-7.93 539.47-8.88 537.84-9.83 535.69-10.75L535.69-10.75Q534.42-11.3 532.99-12.15 531.57-13 530.55-14.4 529.54-15.8 529.54-18L529.54-18Q529.54-21.38 532-23.39 534.47-25.4 538.99-25.4L538.99-25.4Q541.89-25.4 543.9-24.54 545.92-23.68 546.59-23L546.59-23 544.89-18.5Q543.92-19.25 542.42-19.93 540.92-20.6 539.19-20.6L539.19-20.6Q537.29-20.6 536.54-20.1 535.79-19.6 535.79-18.5L535.79-18.5Q535.79-17.28 537.13-16.49 538.47-15.7 540.34-14.95L540.34-14.95Q543.47-13.73 545.38-11.94 547.29-10.15 547.29-7.4L547.29-7.4Q547.29-5.35 546.34-3.56 545.39-1.78 543.29-0.66 541.19 0.45 537.74 0.45ZM555.09 8.15L550.79 8.15Q551.06 7.48 551.26 5.75 551.46 4.03 551.58 1.85 551.69-0.33 551.69-2.35L551.69-2.35 551.69-7.45 557.34-7.45 557.34-3.55Q557.34-1.23 557.01 1.15 556.69 3.53 556.18 5.41 555.66 7.3 555.09 8.15L555.09 8.15ZM585.13 0L578.68 0 578.68-29.2 570.63-29.2 570.63-34.85 593.18-34.85 593.18-29.2 585.13-29.2 585.13 0ZM600.28 0.7L600.28 0.7Q597.98 0.7 596.47-0.33 594.96-1.35 594.22-3.05 593.48-4.75 593.48-6.8L593.48-6.8Q593.48-7.95 594.07-9.33 594.66-10.7 596.16-11.95 597.66-13.2 600.38-14 603.11-14.8 607.38-14.8L607.38-14.8 607.38-15.95Q607.38-17.8 606.49-19.03 605.61-20.25 602.93-20.25L602.93-20.25Q600.98-20.25 599.12-19.59 597.26-18.93 596.38-17.95L596.38-17.95 594.38-22.75Q595.88-23.78 598.39-24.64 600.91-25.5 603.98-25.5L603.98-25.5Q607.68-25.5 609.73-24.38 611.78-23.25 612.61-21.19 613.43-19.13 613.43-16.35L613.43-16.35 613.43 0 608.08 0 607.63-3.55Q605.03 0.7 600.28 0.7ZM602.93-4.1L602.93-4.1Q604.06-4.1 605.34-5.01 606.63-5.93 607.38-7.35L607.38-7.35 607.38-10.9Q607.13-10.95 606.84-10.95 606.56-10.95 606.18-10.95L606.18-10.95Q604.81-10.95 603.29-10.64 601.78-10.33 600.73-9.55 599.68-8.78 599.68-7.4L599.68-7.4Q599.68-5.6 600.48-4.85 601.28-4.1 602.93-4.1ZM626.93-28.95L619.93-28.95 619.93-35.6 626.93-35.6 626.93-28.95ZM626.68 0L620.18 0 620.18-24.9 626.68-24.9 626.68 0ZM640.33 0L634.23 0 634.23-38 640.33-38 640.33 0ZM656.72 0.5L656.72 0.5Q651.22 0.5 648.22-2.95 645.22-6.4 645.22-12.5L645.22-12.5Q645.22-18.65 648.32-22.08 651.42-25.5 656.92-25.5L656.92-25.5Q662.45-25.5 665.34-21.96 668.22-18.43 668.22-12.5L668.22-12.5Q668.22-6.58 665.24-3.04 662.25 0.5 656.72 0.5ZM656.82-4.5L656.82-4.5Q661.57-4.5 661.57-12.5L661.57-12.5Q661.57-20.55 656.82-20.55L656.82-20.55Q654.47-20.55 653.17-18.69 651.87-16.82 651.87-12.5L651.87-12.5Q651.87-8.2 653.17-6.35 654.47-4.5 656.82-4.5ZM680.02 0L673.77 0 673.77-24.9 679.42-24.9 679.72-20.5Q680.12-21.48 680.96-22.58 681.8-23.68 683.28-24.44 684.77-25.2 687.12-25.2L687.12-25.2Q687.85-25.2 688.4-25.1 688.95-25 689.42-24.8L689.42-24.8 688.02-18.25Q687.22-19.05 685.57-19.05L685.57-19.05Q683.65-19.05 682.42-18.26 681.2-17.48 680.61-16.5 680.02-15.53 680.02-15L680.02-15 680.02 0ZM702.72 0.65L702.72 0.65Q698.52 0.65 695.94-1.11 693.37-2.88 692.19-5.79 691.02-8.7 691.02-12.15L691.02-12.15Q691.02-15.78 692.36-18.81 693.69-21.85 696.28-23.68 698.87-25.5 702.62-25.5L702.62-25.5Q708.22-25.5 710.44-22.26 712.67-19.03 712.67-13.1L712.67-13.1Q712.67-12.58 712.64-11.78 712.62-10.98 712.57-10.4L712.57-10.4 697.57-10.4Q697.72-7.45 699.23-5.78 700.74-4.1 703.77-4.1L703.77-4.1Q705.32-4.1 707.09-4.79 708.87-5.48 709.72-6.45L709.72-6.45 711.72-1.7Q710.72-1.03 708.56-0.19 706.39 0.65 702.72 0.65ZM697.52-14.3L697.52-14.3 706.32-14.3Q706.32-16.93 705.86-18.31 705.39-19.7 704.59-20.23 703.79-20.75 702.77-20.75L702.77-20.75Q700.22-20.75 698.94-18.86 697.67-16.98 697.52-14.3ZM726.92 0.7L726.92 0.7Q723.89 0.7 721.67-0.93 719.44-2.55 718.23-5.5 717.02-8.45 717.02-12.4L717.02-12.4Q717.02-18.55 719.53-22.03 722.04-25.5 727.02-25.5L727.02-25.5Q729.57-25.5 731.33-24.24 733.09-22.98 733.62-20.6L733.62-20.6 733.17-24.25 733.17-38 739.07-38 739.07 0 733.62 0 733.62-5.1Q732.94-2.53 731.24-0.91 729.54 0.7 726.92 0.7ZM728.37-4.25L728.37-4.25Q730.17-4.25 731.59-6.14 733.02-8.03 733.02-12.3L733.02-12.3Q733.02-16.2 731.92-18.32 730.82-20.45 728.52-20.45L728.52-20.45Q727.34-20.45 726.18-19.73 725.02-19 724.24-17.24 723.47-15.48 723.47-12.4L723.47-12.4Q723.47-8.28 724.89-6.26 726.32-4.25 728.37-4.25ZM762.56 0L756.51 0 756.51-19.65 753.16-19.65 753.16-24.9 756.51-24.9 756.51-29.5Q756.51-32.4 757.35-34.23 758.19-36.05 759.49-37.04 760.79-38.02 762.25-38.41 763.71-38.8 764.96-38.8L764.96-38.8Q767.41-38.8 768.65-38.36 769.89-37.93 770.11-37.7L770.11-37.7 770.11-32.25Q769.56-32.98 768.44-33.31 767.31-33.65 766.51-33.65L766.51-33.65Q765.59-33.65 764.67-33.35 763.76-33.05 763.16-32.19 762.56-31.33 762.56-29.65L762.56-29.65 762.56-24.9 768.61-24.9 768.61-19.65 762.56-19.65 762.56 0ZM782.01 0.5L782.01 0.5Q776.51 0.5 773.51-2.95 770.51-6.4 770.51-12.5L770.51-12.5Q770.51-18.65 773.61-22.08 776.71-25.5 782.21-25.5L782.21-25.5Q787.73-25.5 790.62-21.96 793.51-18.43 793.51-12.5L793.51-12.5Q793.51-6.58 790.52-3.04 787.53 0.5 782.01 0.5ZM782.11-4.5L782.11-4.5Q786.86-4.5 786.86-12.5L786.86-12.5Q786.86-20.55 782.11-20.55L782.11-20.55Q779.76-20.55 778.46-18.69 777.16-16.82 777.16-12.5L777.16-12.5Q777.16-8.2 778.46-6.35 779.76-4.5 782.11-4.5ZM805.31 0L799.06 0 799.06-24.9 804.71-24.9 805.01-20.5Q805.41-21.48 806.24-22.58 807.08-23.68 808.57-24.44 810.06-25.2 812.41-25.2L812.41-25.2Q813.13-25.2 813.68-25.1 814.23-25 814.71-24.8L814.71-24.8 813.31-18.25Q812.51-19.05 810.86-19.05L810.86-19.05Q808.93-19.05 807.71-18.26 806.48-17.48 805.89-16.5 805.31-15.53 805.31-15L805.31-15 805.31 0ZM836.9 0.55L836.9 0.55Q833.23 0.55 830.48-0.68 827.73-1.9 826.45-3.25L826.45-3.25 829-8.5Q829.53-7.83 830.66-6.98 831.8-6.13 833.31-5.49 834.83-4.85 836.45-4.85L836.45-4.85Q838.33-4.85 839.71-5.9 841.1-6.95 841.1-9L841.1-9Q841.1-11.03 839.66-12.21 838.23-13.4 835.75-14.9L835.75-14.9Q833.73-16.13 831.78-17.51 829.83-18.9 828.54-20.91 827.25-22.93 827.25-26L827.25-26Q827.25-30.13 829.89-32.79 832.53-35.45 837.55-35.45L837.55-35.45Q840.1-35.45 841.89-34.85 843.68-34.25 844.79-33.48 845.9-32.7 846.45-32.2L846.45-32.2 843.65-27.1Q843.3-27.6 842.48-28.33 841.65-29.05 840.45-29.6 839.25-30.15 837.8-30.15L837.8-30.15Q835.78-30.15 834.76-28.99 833.75-27.83 833.75-26.25L833.75-26.25Q833.75-24.23 835.24-22.95 836.73-21.68 838.85-20.4L838.85-20.4Q841.2-19 843.2-17.59 845.2-16.18 846.43-14.21 847.65-12.25 847.65-9.2L847.65-9.2Q847.65-4.63 844.78-2.04 841.9 0.55 836.9 0.55ZM860.25 0.6L860.25 0.6Q856.47 0.6 854.69-1.81 852.9-4.23 852.9-8.45L852.9-8.45 852.9-24.9 859.15-24.9 859.15-9Q859.15-6.95 859.9-5.65 860.65-4.35 862.45-4.35L862.45-4.35Q864.22-4.35 865.41-5.65 866.6-6.95 866.6-9L866.6-9 866.6-24.9 872.85-24.9 872.85 0 867.2 0 867.07-3.23Q866.15-1.75 864.56-0.58 862.97 0.6 860.25 0.6ZM890.05 0.6L890.05 0.6Q886.07 0.6 883.57-1.19 881.07-2.98 879.88-5.93 878.7-8.88 878.7-12.35L878.7-12.35Q878.7-15.8 880.02-18.8 881.35-21.8 883.95-23.65 886.55-25.5 890.4-25.5L890.4-25.5Q892.55-25.5 894.3-25.05 896.05-24.6 897.7-23.25L897.7-23.25 895.65-17.95Q894.9-19.07 893.46-19.69 892.02-20.3 890.75-20.3L890.75-20.3Q885.3-20.3 885.3-12.4L885.3-12.4Q885.3-8.25 886.66-6.38 888.02-4.5 890.75-4.5L890.75-4.5Q892.55-4.5 893.92-5.19 895.3-5.88 896-6.65L896-6.65 897.9-2.2Q897.2-1.45 895.15-0.43 893.1 0.6 890.05 0.6ZM912.59 0.6L912.59 0.6Q908.62 0.6 906.12-1.19 903.62-2.98 902.43-5.93 901.24-8.88 901.24-12.35L901.24-12.35Q901.24-15.8 902.57-18.8 903.89-21.8 906.49-23.65 909.09-25.5 912.94-25.5L912.94-25.5Q915.09-25.5 916.84-25.05 918.59-24.6 920.24-23.25L920.24-23.25 918.19-17.95Q917.44-19.07 916.01-19.69 914.57-20.3 913.29-20.3L913.29-20.3Q907.84-20.3 907.84-12.4L907.84-12.4Q907.84-8.25 909.21-6.38 910.57-4.5 913.29-4.5L913.29-4.5Q915.09-4.5 916.47-5.19 917.84-5.88 918.54-6.65L918.54-6.65 920.44-2.2Q919.74-1.45 917.69-0.43 915.64 0.6 912.59 0.6ZM935.44 0.65L935.44 0.65Q931.24 0.65 928.67-1.11 926.09-2.88 924.92-5.79 923.74-8.7 923.74-12.15L923.74-12.15Q923.74-15.78 925.08-18.81 926.42-21.85 929-23.68 931.59-25.5 935.34-25.5L935.34-25.5Q940.94-25.5 943.17-22.26 945.39-19.03 945.39-13.1L945.39-13.1Q945.39-12.58 945.37-11.78 945.34-10.98 945.29-10.4L945.29-10.4 930.29-10.4Q930.44-7.45 931.95-5.78 933.47-4.1 936.49-4.1L936.49-4.1Q938.04-4.1 939.82-4.79 941.59-5.48 942.44-6.45L942.44-6.45 944.44-1.7Q943.44-1.03 941.28-0.19 939.12 0.65 935.44 0.65ZM930.24-14.3L930.24-14.3 939.04-14.3Q939.04-16.93 938.58-18.31 938.12-19.7 937.32-20.23 936.52-20.75 935.49-20.75L935.49-20.75Q932.94-20.75 931.67-18.86 930.39-16.98 930.24-14.3ZM958.09 0.45L958.09 0.45Q955.36 0.45 953.63-0.06 951.89-0.58 950.93-1.24 949.96-1.9 949.59-2.35L949.59-2.35 951.44-7.1Q952.54-6.2 954.25-5.33 955.96-4.45 958.24-4.45L958.24-4.45Q960.01-4.45 960.73-5.18 961.44-5.9 961.44-6.75L961.44-6.75Q961.44-7.93 959.81-8.88 958.19-9.83 956.04-10.75L956.04-10.75Q954.76-11.3 953.34-12.15 951.91-13 950.9-14.4 949.89-15.8 949.89-18L949.89-18Q949.89-21.38 952.35-23.39 954.81-25.4 959.34-25.4L959.34-25.4Q962.24-25.4 964.25-24.54 966.26-23.68 966.94-23L966.94-23 965.24-18.5Q964.26-19.25 962.76-19.93 961.26-20.6 959.54-20.6L959.54-20.6Q957.64-20.6 956.89-20.1 956.14-19.6 956.14-18.5L956.14-18.5Q956.14-17.28 957.48-16.49 958.81-15.7 960.69-14.95L960.69-14.95Q963.81-13.73 965.73-11.94 967.64-10.15 967.64-7.4L967.64-7.4Q967.64-5.35 966.69-3.56 965.74-1.78 963.64-0.66 961.54 0.45 958.09 0.45ZM979.94 0.45L979.94 0.45Q977.21 0.45 975.47-0.06 973.74-0.58 972.77-1.24 971.81-1.9 971.44-2.35L971.44-2.35 973.29-7.1Q974.39-6.2 976.1-5.33 977.81-4.45 980.09-4.45L980.09-4.45Q981.86-4.45 982.57-5.18 983.29-5.9 983.29-6.75L983.29-6.75Q983.29-7.93 981.66-8.88 980.04-9.83 977.89-10.75L977.89-10.75Q976.61-11.3 975.19-12.15 973.76-13 972.75-14.4 971.74-15.8 971.74-18L971.74-18Q971.74-21.38 974.2-23.39 976.66-25.4 981.19-25.4L981.19-25.4Q984.09-25.4 986.1-24.54 988.11-23.68 988.79-23L988.79-23 987.09-18.5Q986.11-19.25 984.61-19.93 983.11-20.6 981.39-20.6L981.39-20.6Q979.49-20.6 978.74-20.1 977.99-19.6 977.99-18.5L977.99-18.5Q977.99-17.28 979.32-16.49 980.66-15.7 982.54-14.95L982.54-14.95Q985.66-13.73 987.57-11.94 989.49-10.15 989.49-7.4L989.49-7.4Q989.49-5.35 988.54-3.56 987.59-1.78 985.49-0.66 983.39 0.45 979.94 0.45Z" opacity="1" transform="matrix(1,0,0,1,0,0)" fill="#efefef" class="slogan-text-1" data-fill-palette-color="secondary" id="text-1"></path></svg></g></svg></g></svg></g></svg></g><g transform="matrix(1,0,0,1,141.3911442390147,0)"><svg viewBox="0 0 112.73771152197057 96.73771152197057" height="96.73771152197057" width="112.73771152197057"><g><svg xmlns="http://www.w3.org/2000/svg" xmlns:xlink="http://www.w3.org/1999/xlink" version="1.1" x="8" y="0" viewBox="14 14 72 72" enable-background="new 0 0 100 100" xml:space="preserve" height="96.73771152197057" width="96.73771152197057" class="icon-icon-0" data-fill-palette-color="accent" id="icon-0"><g fill="#e0dbc6" data-fill-palette-color="accent"><path d="M85.979 46.746C85.871 45.176 84.765 43.404 83.355 42.615L76 38.542V14H24V38.543L16.643 42.619C15.236 43.405 14.131 45.176 14.022 46.745L14 46.733V82.321C14 84.178 15.783 86 17.6 86H82.398C84.216 86 86 84.178 86 82.321V46.734zM50 67.192L26 53.606V16H74V53.609zM16 47.87V46.996C16 46.092 16.724 44.838 17.567 44.367L24 40.778V52.47zM84 47.871L76 52.473V40.773L82.432 44.363C83.277 44.836 84 46.091 84 46.996z" fill="#e0dbc6" data-fill-palette-color="accent"></path></g></svg></g></svg></g><g><rect width="141.3911442390147" height="3.739045585014543" y="91.99866593695603" x="254.12885576098526" fill="#e0dbc6" data-fill-palette-color="accent"></rect><rect width="141.3911442390147" height="3.739045585014543" y="91.99866593695603" x="0" fill="#e0dbc6" data-fill-palette-color="accent"></rect><rect width="141.3911442390147" height="3.739045585014543" y="84.52057476692694" x="254.12885576098526" fill="#e0dbc6" data-fill-palette-color="accent"></rect><rect width="141.3911442390147" height="3.739045585014543" y="84.52057476692694" x="0" fill="#e0dbc6" data-fill-palette-color="accent"></rect></g></svg></g><defs></defs></svg><rect width="395.52" height="176.52413305212045" fill="none" stroke="none" visibility="hidden"></rect></g></svg></g></svg>